<?xml version="1.0"?>
<!-- Generated by SVGo and Plotinum VG -->
<svg width="300pt" height="300pt" viewBox="0 0 300 300"
	xmlns="http://www.w3.org/2000/svg"
	xmlns:xlink="http://www.w3.org/1999/xlink">
<g transform="scale(1, -1) translate(0, -300)">
<path d="M0,0L300,0L300,300L0,300Z" style="fill:#FFFFFF" />
<text x="25.076" y="-0.18555" transform="scale(1, -1)"
	style="font-family:Times;font-weight:normal;font-style:normal;font-size:10px">-5</text>
<text x="159.79" y="-0.18555" transform="scale(1, -1)"
	style="font-family:Times;font-weight:normal;font-style:normal;font-size:10px">0</text>
<text x="292.84" y="-0.18555" transform="scale(1, -1)"
	style="font-family:Times;font-weight:normal;font-style:normal;font-size:10px">5</text>
<path d="M29.241,9.8145L29.241,17.814" style="fill:none;stroke:#000000;stroke-width:0.5" />
<path d="M162.29,9.8145L162.29,17.814" style="fill:none;stroke:#000000;stroke-width:0.5" />
<path d="M295.34,9.8145L295.34,17.814" style="fill:none;stroke:#000000;stroke-width:0.5" />
<path d="M55.851,13.814L55.851,17.814" style="fill:none;stroke:#000000;stroke-width:0.5" />
<path d="M82.461,13.814L82.461,17.814" style="fill:none;stroke:#000000;stroke-width:0.5" />
<path d="M109.07,13.814L109.07,17.814" style="fill:none;stroke:#000000;stroke-width:0.5" />
<path d="M135.68,13.814L135.68,17.814" style="fill:none;stroke:#000000;stroke-width:0.5" />
<path d="M188.9,13.814L188.9,17.814" style="fill:none;stroke:#000000;stroke-width:0.5" />
<path d="M215.51,13.814L215.51,17.814" style="fill:none;stroke:#000000;stroke-width:0.5" />
<path d="M242.12,13.814L242.12,17.814" style="fill:none;stroke:#000000;stroke-width:0.5" />
<path d="M268.73,13.814L268.73,17.814" style="fill:none;stroke:#000000;stroke-width:0.5" />
<path d="M26.58,17.814L298,17.814" style="fill:none;stroke:#000000;stroke-width:0.5" />
<text x="0" y="-23.016" transform="scale(1, -1)"
	style="font-family:Times;font-weight:normal;font-style:normal;font-size:10px">-5</text>
<text x="3.3301" y="-156.69" transform="scale(1, -1)"
	style="font-family:Times;font-weight:normal;font-style:normal;font-size:10px">0</text>
<text x="3.3301" y="-290.37" transform="scale(1, -1)"
	style="font-family:Times;font-weight:normal;font-style:normal;font-size:10px">5</text>
<path d="M10.83,27.738L18.83,27.738" style="fill:none;stroke:#000000;stroke-width:0.5" />
<path d="M10.83,161.42L18.83,161.42" style="fill:none;stroke:#000000;stroke-width:0.5" />
<path d="M10.83,295.09L18.83,295.09" style="fill:none;stroke:#000000;stroke-width:0.5" />
<path d="M14.83,54.473L18.83,54.473" style="fill:none;stroke:#000000;stroke-width:0.5" />
<path d="M14.83,81.209L18.83,81.209" style="fill:none;stroke:#000000;stroke-width:0.5" />
<path d="M14.83,107.94L18.83,107.94" style="fill:none;stroke:#000000;stroke-width:0.5" />
<path d="M14.83,134.68L18.83,134.68" style="fill:none;stroke:#000000;stroke-width:0.5" />
<path d="M14.83,188.15L18.83,188.15" style="fill:none;stroke:#000000;stroke-width:0.5" />
<path d="M14.83,214.89L18.83,214.89" style="fill:none;stroke:#000000;stroke-width:0.5" />
<path d="M14.83,241.62L18.83,241.62" style="fill:none;stroke:#000000;stroke-width:0.5" />
<path d="M14.83,268.36L18.83,268.36" style="fill:none;stroke:#000000;stroke-width:0.5" />
<path d="M18.83,25.064L18.83,297.77" style="fill:none;stroke:#000000;stroke-width:0.5" />
<path d="M217.51,214.89A2,2 0 1 1 213.51,214.89A2,2 0 1 1 217.51,214.89Z" style="fill:none;stroke:#FF0080;stroke-width:0.5" />
<path d="M270.73,268.36A2,2 0 1 1 266.73,268.36A2,2 0 1 1 270.73,268.36Z" style="fill:none;stroke:#FF0080;stroke-width:0.5" />
<path d="M244.12,241.62A2,2 0 1 1 240.12,241.62A2,2 0 1 1 244.12,241.62Z" style="fill:none;stroke:#FF0080;stroke-width:0.5" />
<path d="M276.05,273.7A2,2 0 1 1 272.05,273.7A2,2 0 1 1 276.05,273.7Z" style="fill:none;stroke:#FF0080;stroke-width:0.5" />
<path d="M300,297.77A2,2 0 1 1 296,297.77A2,2 0 1 1 300,297.77Z" style="fill:none;stroke:#FF0080;stroke-width:0.5" />
<path d="M28.58,25.064A2,2 0 1 1 24.58,25.064A2,2 0 1 1 28.58,25.064Z" style="fill:none;stroke:#FF0080;stroke-width:0.5" />
<path d="M30.085,25.064L32.119,26.999L37.658,32.265L43.198,37.532L48.737,42.798L54.276,48.065L59.815,53.331L65.354,58.598L70.894,63.864L76.433,69.131L81.972,74.397L87.511,79.664L93.05,84.93L98.589,90.197L104.13,95.463L109.67,100.73L115.21,106L120.75,111.26L126.29,116.53L131.82,121.8L137.36,127.06L142.9,132.33L148.44,137.6L153.98,142.86L159.52,148.13L165.06,153.39L170.6,158.66L176.14,163.93L181.68,169.19L187.22,174.46L192.76,179.73L198.29,184.99L203.83,190.26L209.37,195.53L214.91,200.79L220.45,206.06L225.99,211.33L231.53,216.59L237.07,221.86L242.61,227.13L248.15,232.39L253.69,237.66L259.23,242.92L264.76,248.19L270.3,253.46L275.84,258.72L281.38,263.99L286.92,269.26L292.46,274.52L298,279.79" style="fill:none;stroke:#0000FF" />
</g>
</svg>
